
<svg xmlns="http://www.w3.org/2000/svg" version="1.1" xmlns:xlink="http://www.w3.org/1999/xlink" xmlns:svgjs="http://svgjs.dev/svgjs" width="1000" height="999" viewBox="0 0 1000 999"><g transform="matrix(1,0,0,1,-0.215743440233382,-0.21552769679306039)"><svg viewBox="0 0 343 343" data-background-color="#ffffff" preserveAspectRatio="xMidYMid meet" height="999" width="1000" xmlns="http://www.w3.org/2000/svg" xmlns:xlink="http://www.w3.org/1999/xlink"><g id="tight-bounds" transform="matrix(1,0,0,1,0.0740000000000407,0.07400000000001228)"><svg viewBox="0 0 342.85155851775386 342.85155851775386" height="342.85155851775386" width="342.85155851775386"><g><svg></svg></g><g><svg viewBox="0 0 342.85155851775386 342.85155851775386" height="342.85155851775386" width="342.85155851775386"><g><path d="M0 171.426c0-94.676 76.75-171.426 171.426-171.426 94.676 0 171.426 76.75 171.426 171.426 0 94.676-76.75 171.426-171.426 171.426-94.676 0-171.426-76.75-171.426-171.426zM171.426 339.424c92.783 0 167.998-75.215 167.998-167.998 0-92.783-75.215-167.998-167.998-167.999-92.783 0-167.998 75.215-167.999 167.999 0 92.783 75.215 167.998 167.999 167.998z" data-fill-palette-color="tertiary" fill="#5ebc67" stroke="transparent"></path><ellipse rx="164.56874808852186" ry="164.56874808852186" cx="171.42577925887693" cy="171.42577925887693" fill="#5ebc67" stroke="transparent" stroke-width="0" fill-opacity="1" data-fill-palette-color="tertiary"></ellipse></g><g transform="matrix(1,0,0,1,64.84655864529837,121.67485229245844)"><svg viewBox="0 0 213.1584412271571 99.50185393283698" height="99.50185393283698" width="213.1584412271571"><g><svg viewBox="0 0 213.1584412271571 99.50185393283698" height="99.50185393283698" width="213.1584412271571"><g><svg viewBox="0 0 213.1584412271571 99.50185393283698" height="99.50185393283698" width="213.1584412271571"><g transform="matrix(1,0,0,1,0,61.496137546896705)"><svg viewBox="0 0 213.1584412271571 38.00571638594028" height="38.00571638594028" width="213.1584412271571"><g><svg viewBox="0 0 213.1584412271571 38.00571638594028" height="38.00571638594028" width="213.1584412271571"><g><svg viewBox="0 0 213.1584412271571 38.00571638594028" height="38.00571638594028" width="213.1584412271571"><g transform="matrix(1,0,0,1,0,0)"><svg width="213.1584412271571" viewBox="2 -38.18000030517578 223.17999267578125 39.790000915527344" height="38.00571638594028" data-palette-color="#ffffff"><path d="M31.45-28.42L31.45-28.42 31.45-25 22.02-24.51Q21.83-21.68 21.73-18.9 21.63-16.11 21.63-13.33L21.63-13.33Q21.63-9.91 21.46-6.52 21.29-3.13 21.04 0.24L21.04 0.24Q19.29 0.34 17.53 0.42 15.77 0.49 14.01 0.49L14.01 0.49Q13.38 0.49 12.77 0.46 12.16 0.44 11.57 0.44L11.57 0.44Q11.67-2.54 11.74-5.49 11.82-8.45 11.82-11.38L11.82-11.38Q11.82-14.31 11.67-17.26 11.52-20.21 11.33-23.19L11.33-23.19Q9.91-23.14 8.47-23.1 7.03-23.05 5.57-23.05L5.57-23.05Q4.74-23.05 3.93-23.05 3.13-23.05 2.29-23.1L2.29-23.1Q2.15-26.71 2.1-30.27 2.05-33.84 2-37.4L2-37.4Q9.33-37.26 16.55-36.99 23.78-36.72 31.05-36.52L31.05-36.52Q31.25-34.42 31.35-32.45 31.45-30.47 31.45-28.42ZM67.23-0.15L67.23-0.15 59.81 0.98Q59.03-1.51 58.25-3.98 57.47-6.45 56.74-8.94L56.74-8.94 44.72-8.5 43.21-2 35.69-2Q36.37-10.3 37.11-18.51 37.84-26.71 38.52-34.96L38.52-34.96Q42.04-35.55 45.53-35.94 49.02-36.33 52.59-36.33L52.59-36.33Q56.93-36.33 61.28-36.18L61.28-36.18Q62.06-31.1 62.81-26.05 63.57-21 64.4-15.92L64.4-15.92Q64.99-11.91 65.7-8.01 66.4-4.1 67.23-0.15ZM45.65-15.33L55.03-15.58Q54.98-16.02 54.78-17.21 54.59-18.41 54.34-19.75 54.1-21.09 53.78-22.19 53.46-23.29 53.17-23.49L53.17-23.49Q53.07-23.54 52.71-23.58 52.34-23.63 51.93-23.68 51.51-23.73 51.12-23.73 50.73-23.73 50.58-23.73L50.58-23.73Q50.34-23.73 49.92-23.73 49.51-23.73 49.05-23.71 48.58-23.68 48.17-23.58 47.75-23.49 47.6-23.34L47.6-23.34Q47.51-23.29 47.36-22.71 47.21-22.12 46.99-21.26 46.77-20.41 46.56-19.43 46.34-18.46 46.14-17.58 45.94-16.7 45.82-16.06 45.7-15.43 45.65-15.33L45.65-15.33ZM109.66-0.24L109.66-0.24Q107.32 0.29 105 0.76 102.68 1.22 100.29 1.61L100.29 1.61Q97.36-2.83 94.5-7.15 91.65-11.47 88.57-15.77L88.57-15.77 83.34-10.69 82.86 0.15Q81.73 0.1 80.63 0.07 79.54 0.05 78.46 0.05L78.46 0.05Q77.44 0.05 76.46 0.1 75.48 0.15 74.51 0.29L74.51 0.29Q73.92-4.2 73.41-8.67 72.9-13.13 72.5-17.68L72.5-17.68Q72.11-22.22 71.89-26.73 71.67-31.25 71.48-35.79L71.48-35.79Q75.14-35.69 78.73-35.67 82.32-35.64 85.98-35.55L85.98-35.55 85.69-24.22Q88.33-26.95 90.67-29.79 93.01-32.62 95.5-35.55L95.5-35.55Q97.85-35.69 100.24-35.86 102.63-36.04 104.98-36.23L104.98-36.23 104.78-32.62 94.43-21.83Q98.14-16.31 101.92-10.99 105.71-5.66 109.66-0.24ZM147.11-16.11L147.11-16.11Q147.11-13.33 146.99-10.6 146.87-7.86 146.48-5.08L146.48-5.08Q145.7-4.49 144.91-3.98 144.13-3.47 143.3-2.88L143.3-2.88Q142.62-2.44 141.81-1.88 141.01-1.32 140.13-0.78 139.25-0.24 138.35 0.17 137.44 0.59 136.66 0.73L136.66 0.73Q135.93 0.93 134.71 0.9 133.49 0.88 132.66 0.88L132.66 0.88Q130.61 0.98 128.56 1.03 126.51 1.07 124.36 1.07L124.36 1.07Q123.38 1.07 122.11 1.1 120.84 1.12 119.82 0.88L119.82 0.88Q119.52 0.83 118.84 0.42 118.16 0 117.3-0.61 116.45-1.22 115.52-1.93 114.59-2.64 113.74-3.3 112.88-3.96 112.27-4.47 111.66-4.98 111.42-5.18L111.42-5.18Q111.17-7.76 111.05-10.33 110.93-12.89 110.93-15.48L110.93-15.48Q110.93-20.51 111.3-25.44 111.66-30.37 112.1-35.35L112.1-35.35 122.16-35.6Q121.67-32.47 121.48-28.98 121.28-25.49 121.28-22.27L121.28-22.27Q121.28-21.73 121.33-20.39 121.38-19.04 121.53-17.53 121.67-16.02 121.89-14.75 122.11-13.48 122.45-13.09L122.45-13.09Q122.6-12.94 123.21-12.82 123.82-12.7 124.68-12.6 125.53-12.5 126.51-12.45 127.48-12.4 128.36-12.38 129.24-12.35 129.92-12.33 130.61-12.3 130.9-12.3L130.9-12.3Q131.14-12.3 131.73-12.3 132.32-12.3 132.93-12.33 133.54-12.35 134.07-12.4 134.61-12.45 134.81-12.6L134.81-12.6Q135.39-12.99 135.69-14.5 135.98-16.02 136.13-17.82 136.27-19.63 136.27-21.29 136.27-22.95 136.27-23.68L136.27-23.68Q136.27-24.8 136.3-25.93 136.32-27.05 136.32-28.17L136.32-28.17Q136.32-30.47 136.27-32.69 136.22-34.91 136.13-37.21L136.13-37.21Q137.15-37.11 138.15-37.08 139.15-37.06 140.18-37.06L140.18-37.06Q141.4-37.06 142.6-37.11 143.79-37.16 144.96-37.4L144.96-37.4Q145.99-32.18 146.55-26.83 147.11-21.48 147.11-16.11ZM187.64-12.16L187.64-12.16Q187.64-10.4 187.1-8.47 186.56-6.54 185.54-4.86 184.51-3.17 183.02-1.93 181.53-0.68 179.68-0.29L179.68-0.29Q178.95-0.15 177.94-0.05 176.94 0.05 175.87 0.1 174.79 0.15 173.74 0.2 172.7 0.24 171.96 0.24L171.96 0.24Q167.76 0.44 163.56 0.46 159.37 0.49 155.12 0.49L155.12 0.49Q154.92-1.51 154.75-3.47 154.58-5.42 154.29-7.47L154.29-7.47Q157.66-7.62 161-7.79 164.35-7.96 167.71-8.2L167.71-8.2Q168.45-8.25 169.35-8.25 170.25-8.25 171.21-8.3 172.16-8.35 173.06-8.42 173.96-8.5 174.65-8.64L174.65-8.64Q174.94-8.69 175.36-8.81 175.77-8.94 176.11-9.16 176.45-9.38 176.7-9.67 176.94-9.96 176.94-10.4L176.94-10.4Q176.94-11.43 176.72-12.67 176.5-13.92 176.41-14.89L176.41-14.89Q172.74-14.55 169.06-14.23 165.37-13.92 161.66-13.92L161.66-13.92Q159.12-13.92 157.61-15.36 156.09-16.8 155.41-19.14L155.41-19.14Q155.26-19.68 155.14-20.43 155.02-21.19 154.95-22 154.87-22.8 154.82-23.58 154.78-24.37 154.73-24.9L154.73-24.9Q154.48-28.13 154.36-31.25 154.24-34.38 154.14-37.6L154.14-37.6Q156.48-37.35 158.85-37.16 161.22-36.96 163.56-36.82L163.56-36.82Q163.56-34.52 163.69-31.96 163.81-29.39 164.3-27.2L164.3-27.2Q164.54-26.03 165.22-25.17 165.91-24.32 166.86-23.75 167.81-23.19 168.91-22.92 170.01-22.66 171.13-22.66L171.13-22.66Q172.45-22.66 173.77-22.92 175.09-23.19 176.31-23.58L176.31-23.58Q176.11-27.25 175.99-30.81 175.87-34.38 175.53-37.99L175.53-37.99Q176.99-38.04 178.46-38.11 179.92-38.18 181.39-38.18L181.39-38.18Q183.68-38.18 186.03-37.74L186.03-37.74Q186.03-35.64 186.1-33.54 186.17-31.45 186.27-29.35L186.27-29.35Q186.37-28.37 186.44-27.37 186.51-26.37 186.56-25.39L186.56-25.39Q186.76-22.07 187.2-18.77 187.64-15.48 187.64-12.16ZM225.18-0.15L225.18-0.15 217.76 0.98Q216.98-1.51 216.2-3.98 215.42-6.45 214.68-8.94L214.68-8.94 202.67-8.5 201.16-2 193.64-2Q194.32-10.3 195.06-18.51 195.79-26.71 196.47-34.96L196.47-34.96Q199.99-35.55 203.48-35.94 206.97-36.33 210.53-36.33L210.53-36.33Q214.88-36.33 219.23-36.18L219.23-36.18Q220.01-31.1 220.76-26.05 221.52-21 222.35-15.92L222.35-15.92Q222.94-11.91 223.64-8.01 224.35-4.1 225.18-0.15ZM203.6-15.33L212.98-15.58Q212.93-16.02 212.73-17.21 212.54-18.41 212.29-19.75 212.05-21.09 211.73-22.19 211.41-23.29 211.12-23.49L211.12-23.49Q211.02-23.54 210.66-23.58 210.29-23.63 209.88-23.68 209.46-23.73 209.07-23.73 208.68-23.73 208.53-23.73L208.53-23.73Q208.29-23.73 207.87-23.73 207.46-23.73 206.99-23.71 206.53-23.68 206.12-23.58 205.7-23.49 205.55-23.34L205.55-23.34Q205.46-23.29 205.31-22.71 205.16-22.12 204.94-21.26 204.72-20.41 204.5-19.43 204.28-18.46 204.09-17.58 203.89-16.7 203.77-16.06 203.65-15.43 203.6-15.33L203.6-15.33Z" opacity="1" transform="matrix(1,0,0,1,0,0)" fill="#ffffff" class="undefined-text-0" data-fill-palette-color="quaternary" id="text-0"></path></svg></g></svg></g></svg></g></svg></g><g transform="matrix(1,0,0,1,86.2581814987632,0)"><svg viewBox="0 0 40.642078229630734 52.523900045369466" height="52.523900045369466" width="40.642078229630734"><g><svg xmlns="http://www.w3.org/2000/svg" xmlns:xlink="http://www.w3.org/1999/xlink" version="1.1" x="0" y="0" viewBox="12.982999801635742 1 75.68599700927734 97.81300354003906" enable-background="new 0 0 100 100" xml:space="preserve" height="52.523900045369466" width="40.642078229630734" class="icon-icon-0" data-fill-palette-color="quaternary" id="icon-0"><g fill="#ffffff" data-fill-palette-color="quaternary"><polygon fill-rule="evenodd" clip-rule="evenodd" points="12.983,10.59 30.001,98.813 24.129,39.764 53.15,37.872 53.096,27.989    64.549,1 53.622,18.977  " fill="#ffffff" data-fill-palette-color="quaternary"></polygon><polygon fill-rule="evenodd" clip-rule="evenodd" points="59.389,54.548 64.549,1.007 55.809,40.723 36.197,41.768 37.767,62.23    30.001,98.813 42.058,58.914  " fill="#ffffff" data-fill-palette-color="quaternary"></polygon><polygon fill-rule="evenodd" clip-rule="evenodd" points="62.8,67.182 63.349,56.729 47.37,60.484 47.338,72.281 30.001,98.813    51.681,71.197  " fill="#ffffff" data-fill-palette-color="quaternary"></polygon><polygon fill-rule="evenodd" clip-rule="evenodd" points="65.711,62.394 80.552,57.663 82.061,45.131 66.162,47.226  " fill="#ffffff" data-fill-palette-color="quaternary"></polygon><polygon fill-rule="evenodd" clip-rule="evenodd" points="72.07,44.502 83.058,43.085 84.639,32.807 76.56,32.434 64.549,1    72.979,31.967  " fill="#ffffff" data-fill-palette-color="quaternary"></polygon><polygon fill-rule="evenodd" clip-rule="evenodd" points="87.413,31.294 88.669,21.788 79.125,19.094 64.549,1 79.032,23.437    78.61,30.437  " fill="#ffffff" data-fill-palette-color="quaternary"></polygon></g></svg></g></svg></g><g></g></svg></g></svg></g></svg></g></svg></g><defs></defs></svg><rect width="342.85155851775386" height="342.85155851775386" fill="none" stroke="none" visibility="hidden"></rect></g></svg></g></svg>